<svg width="596" height="649" viewBox="0 0 596 649" xmlns="http://www.w3.org/2000/svg"><title>Logo on dark</title><desc>Created with Sketch Beta.</desc><g fill="none" fill-rule="evenodd"><g><g><g transform="translate(-214 -189) translate(214 189)"><path d="M107.673 540.165l186.004 107.388c2.388 1.38 6.258 1.378 8.646 0l187.284-108.127c-20.73-9.135-37.823-25.003-48.513-44.834l-138.763 80.07c-2.39 1.38-6.275 1.377-8.66 0l-136.486-78.755c-11.03 19.758-28.473 35.45-49.51 44.258zM10 363.545V156.216c0-2.757 1.935-6.108 4.323-7.487L201.6 40.606C199.255 49.172 198 58.19 198 67.5c0 15.23 3.354 29.674 9.363 42.638L77.33 185.17c-2.385 1.377-4.33 4.737-4.33 7.498v152.43c-1.492-.065-2.992-.098-4.5-.098-21.784 0-41.966 6.863-58.5 18.544zm576-2.04V156.216c0-2.758-1.935-6.11-4.323-7.487L397.935 42.648C399.937 50.6 401 58.926 401 67.5c0 15.764-3.594 30.688-10.006 43.998L518.67 185.17c2.39 1.38 4.33 4.744 4.33 7.498v152.605c2.476-.18 4.977-.273 7.5-.273 20.484 0 39.55 6.068 55.5 16.504z" fill="#00ABF0"/><circle fill="#181928" cx="297" cy="67" r="67"/><circle fill="#181928" cx="529" cy="446" r="67"/><circle fill="#181928" cx="67" cy="446" r="67"/></g></g></g></g></svg>